<svg xmlns="http://www.w3.org/2000/svg" xmlns:xlink="http://www.w3.org/1999/xlink" width="16.922" height="26" viewBox="0 0 16.922 26">
  <defs>
    <clipPath id="clip-path">
      <rect id="Rectangle_261" data-name="Rectangle 261" width="16.922" height="26" />
    </clipPath>
  </defs>
  <g id="Group_780" data-name="Group 780" clip-path="url(#clip-path)">
    <path id="Path_511" data-name="Path 511" d="M16.922,8.46a8.461,8.461,0,1,0-9.107,8.429v3.723H5.185a.646.646,0,0,0,0,1.293H7.815v3.449a.646.646,0,1,0,1.293,0V21.9h2.721a.646.646,0,0,0,0-1.293H9.107V16.888A8.468,8.468,0,0,0,16.922,8.46m-15.629,0a7.168,7.168,0,1,1,7.168,7.168A7.175,7.175,0,0,1,1.293,8.46" transform="translate(0 0)" />
  </g>
</svg>
