<svg xmlns="http://www.w3.org/2000/svg" xmlns:xlink="http://www.w3.org/1999/xlink" width="21.767" height="19.564" viewBox="0 0 21.767 19.564">
  <defs>
    <clipPath id="clip-path">
      <rect id="Rectangle_408" data-name="Rectangle 408" width="21.767" height="19.564"/>
    </clipPath>
  </defs>
  <g id="Group_936" data-name="Group 936" transform="translate(0 0)">
    <g id="Group_935" data-name="Group 935" transform="translate(0 0)" clip-path="url(#clip-path)">
      <path id="Path_582" data-name="Path 582" d="M21.544,10.026,19.79,8.19V8.136h-.051L12.719.785a2.538,2.538,0,0,0-3.671,0L2.031,8.136H1.977V8.19L.223,10.026A.807.807,0,1,0,1.39,11.139l.587-.614v6.018a2.884,2.884,0,0,0,2.717,3.021H17.076a2.883,2.883,0,0,0,2.714-3.021V10.525l.587.614a.807.807,0,0,0,1.14.027.807.807,0,0,0,.027-1.14m-3.367,6.517a1.3,1.3,0,0,1-1.1,1.408H4.694a1.3,1.3,0,0,1-1.1-1.408V8.837L10.215,1.9a.879.879,0,0,1,1.339,0l6.623,6.936Z" transform="translate(0 -0.001)"/>
    </g>
  </g>
</svg>
