<svg xmlns="http://www.w3.org/2000/svg" xmlns:xlink="http://www.w3.org/1999/xlink" width="18.095" height="13.088" viewBox="0 0 18.095 13.088">
  <defs>
    <clipPath id="clip-path">
      <rect id="Rectangle_387" data-name="Rectangle 387" width="18.095" height="13.088" fill="none"/>
    </clipPath>
  </defs>
  <g id="Group_924" data-name="Group 924" transform="translate(0 0)">
    <g id="Group_919" data-name="Group 919" transform="translate(0 0)" clip-path="url(#clip-path)">
      <path id="Path_575" data-name="Path 575" d="M16.191,0H1.9A1.9,1.9,0,0,0,0,1.9v9.282a1.9,1.9,0,0,0,1.9,1.9h14.29a1.9,1.9,0,0,0,1.9-1.9V1.9a1.9,1.9,0,0,0-1.9-1.9M14.942,1.507l-5.9,4.116-5.9-4.116Zm1.249,10.071H1.9a.394.394,0,0,1-.394-.4V2.2L8.616,7.162a.753.753,0,0,0,.862,0L16.586,2.2v8.985a.4.4,0,0,1-.4.4" transform="translate(0 0.001)" fill="#fff"/>
    </g>
  </g>
</svg>
