<svg xmlns="http://www.w3.org/2000/svg" xmlns:xlink="http://www.w3.org/1999/xlink" width="26.805" height="26.805" viewBox="0 0 26.805 26.805">
  <defs>
    <clipPath id="clip-path">
      <rect id="Rectangle_418" data-name="Rectangle 418" width="26.805" height="26.805" transform="translate(0 0)" fill="none"/>
    </clipPath>
  </defs>
  <g id="Group_942" data-name="Group 942" transform="translate(0 0)">
    <g id="Group_941" data-name="Group 941" clip-path="url(#clip-path)">
      <path id="Path_590" data-name="Path 590" d="M26.8,4.781,22.023,0,16.371,5.651H3.611A3.615,3.615,0,0,0,0,9.262V23.193A3.615,3.615,0,0,0,3.611,26.8H17.542a3.615,3.615,0,0,0,3.611-3.611V10.432Zm-2.828,0-8.11,8.109-1.8-.156-.157-1.8L17.2,7.651h.011v-.01l4.813-4.813ZM19.153,23.193A1.613,1.613,0,0,1,17.542,24.8H3.611A1.612,1.612,0,0,1,2,23.193V9.262A1.613,1.613,0,0,1,3.611,7.651H14.37l-2.53,2.53.382,4.4,4.4.381,2.531-2.531Z" fill="#fff"/>
      <path id="Path_591" data-name="Path 591" d="M5.431,16.154H9.089a1,1,0,1,0,0-2H5.431a1,1,0,1,0,0,2" fill="#fff"/>
      <path id="Path_592" data-name="Path 592" d="M15.723,18.878H5.431a1,1,0,0,0,0,2H15.723a1,1,0,0,0,0-2" fill="#fff"/>
    </g>
  </g>
</svg>
