<svg xmlns="http://www.w3.org/2000/svg" xmlns:xlink="http://www.w3.org/1999/xlink" width="16.032" height="15.799" viewBox="0 0 16.032 15.799">
  <defs>
    <clipPath id="clip-path">
      <rect id="Rectangle_411" data-name="Rectangle 411" width="16.032" height="15.799" transform="translate(0 0)" fill="#ff7500"/>
    </clipPath>
  </defs>
  <g id="Group_940" data-name="Group 940" transform="translate(-5.859 -12.773)">
    <g id="Group_939" data-name="Group 939" transform="translate(5.859 12.773)" clip-path="url(#clip-path)">
      <path id="Path_588" data-name="Path 588" d="M13.362,4h-.789V1.939A1.866,1.866,0,0,0,10.794,0H5.238a1.866,1.866,0,0,0-1.78,1.939V4H2.671A2.673,2.673,0,0,0,0,6.668v6.461A2.673,2.673,0,0,0,2.671,15.8H13.362a2.673,2.673,0,0,0,2.669-2.669V6.668A2.673,2.673,0,0,0,13.362,4M4.684,1.939a.659.659,0,0,1,.555-.714h5.556a.659.659,0,0,1,.555.714V4H4.684ZM6.565,5.222h2.9V6.967a1.624,1.624,0,0,1-.137.714H6.7a1.613,1.613,0,0,1-.138-.714Zm8.242,7.907a1.446,1.446,0,0,1-1.445,1.445H2.671a1.447,1.447,0,0,1-1.446-1.445V6.668A1.447,1.447,0,0,1,2.671,5.222H5.34V6.967c0,1.141.5,1.939,1.223,1.939H9.469c.72,0,1.223-.8,1.223-1.939V5.222h2.671a1.447,1.447,0,0,1,1.445,1.445Z" transform="translate(0 0)" fill="#ff7500"/>
    </g>
  </g>
</svg>
