<svg xmlns="http://www.w3.org/2000/svg" xmlns:xlink="http://www.w3.org/1999/xlink" width="103.401" height="20.118" viewBox="0 0 103.401 20.118">
  <defs>
    <clipPath id="clip-path">
      <rect id="Rectangle_410" data-name="Rectangle 410" width="103.401" height="20.118" fill="none"/>
    </clipPath>
  </defs>
  <g id="Group_938" data-name="Group 938" transform="translate(0 0)">
    <g id="Group_937" data-name="Group 937" transform="translate(0 0)" clip-path="url(#clip-path)">
      <path id="Path_583" data-name="Path 583" d="M14.4,17.5v3.492H1.489A1.489,1.489,0,0,1,0,19.5V17.953L9.589,5.007H0V1.542H12.908A1.489,1.489,0,0,1,14.4,3.031v1.6L4.969,17.5Z" transform="translate(0 -1.193)" fill="#fff"/>
      <path id="Path_584" data-name="Path 584" d="M88.107,17.5v3.492H75.779V1.542H88.107V5.007H79.915V9.573h7.708v3.384H79.915V17.5Z" transform="translate(-58.617 -1.193)" fill="#fff"/>
      <path id="Path_585" data-name="Path 585" d="M155.841,1.542H140.289V5.033h5.721V20.988h4.163V5.033h11.092V20.988h4.163V5.033H171.1V1.542Z" transform="translate(-108.517 -1.192)" fill="#fff"/>
      <rect id="Rectangle_409" data-name="Rectangle 409" width="4.136" height="19.446" transform="translate(65.345 0.349)" fill="#fff"/>
      <path id="Path_586" data-name="Path 586" d="M330.117,1.548V20.991h-4.779L319,9.384V1.548l7.359,13.779V1.548Z" transform="translate(-246.752 -1.197)" fill="#fff"/>
      <path id="Path_587" data-name="Path 587" d="M388.549,20.118c-5.855,0-8.246-4.056-8.246-9.723C380.3,4.11,383.526,0,389.731,0c4.244,0,7.333,1.907,7.682,6.8l-3.868.376c-.215-2.068-1.1-3.76-3.895-3.76-3.411,0-5.05,2.444-5.05,6.608,0,4.62,1.5,6.769,4.915,6.769,2.605,0,3.975-1.5,3.975-3.384v-.7h-3.545V9.67h6.139a1.489,1.489,0,0,1,1.489,1.489V19.8h-3.008l-.457-2.39c-.833,1.746-3.169,2.713-5.56,2.713" transform="translate(-294.172 0)" fill="#fff"/>
    </g>
  </g>
</svg>
